<?xml version="1.0" encoding="UTF-8" standalone="no"?>

<!-- 
This file serves as our template for standardized GPML pathway visual representations.
This file can be used for many purposes outside of pathvisio.js, including allowing
other projects to work better with GPML. For purposes of pathvisio.js, this file will
be the starting point for our JavaScript rendering of pathways. Every time we want to
render a GPML file on the browser, we will read a copy of this file into D3.js and
modify the copy by adding "use" statements, cloning markers, etc. in order to create
the desired pathway illustration in SVG.

The XML declaration above is taken from an example from the W3C 
<http://www.w3.org/TR/SVG/images/struct/use04.svg>,
except I added:
encoding="UTF-8" 
We will want to change standalone to yes if we keep the CSS and
JS all inside this document.

Doctypes are not needed for SVG, and jwatt discourages their use:
https://jwatt.org/svg/authoring/.

Style guides can be arbitrary, but for consistency of SVG markup for the pathvisio.js project,
	I suggest using JS Watt's SVG authoring advice and Google's HTML and JavaScript Guides:
	https://jwatt.org/svg/authoring/
	http://google-styleguide.googlecode.com/svn/trunk/htmlcssguide.xml
	http://google-styleguide.googlecode.com/svn/trunk/javascriptguide.xml

JS Watt's advice is referenced from MDN:
https://developer.mozilla.org/en-US/docs/Web/SVG

For testing, we will ensure this SVG file renders correctly with the following browsers and graphics programs:
Chrome (latest release)
	Uses Skia graphics library
Firefox (latest release)
	Uses Azure graphics library
	Safari (latest release)
	Android Browser (latest release)
	iOS Browser (latest release)
	Internet Explorer (IE9 and subsequent versions)
Squiggle SVG browser (latest release)
	Uses Batik 
	Available for download at http://xmlgraphics.apache.org/batik/download.html
SVG-Edit (latest release)
	Version 2.6 (latest release as of 2013-07-08) available for download at 
	http://svg-edit.googlecode.com/svn/branches/2.6/editor/svg-editor.html
	Inkscape
	Uses livarot rendering engine but is in process of transitioning to Cairo
	Available for download at http://inkscape.org/

	Optional additional tests:
	SvgWeb
	Adobe Illustrator (CS6)
Either convert SVG to PDF and import PDF into Illustrator or convert SVG to .ai (Illustrator format)
	with a converter like Uniconverter, available for download at
	http://sk1project.org/modules.php?name=Products&product=uniconvertor
	Opening this SVG directly with Illustrator does not work well.
	In the future, we could use Uniconverter on the server to make it possible to download pathway images in
	.ai (Illustrator) and .cdr (CorelDraw) formats.

	For more information on SVG, these references are helpful:
	[W3 Spec](http://www.w3.org/TR/SVG/expanded-toc.html)
	[MDN on SVG](https://developer.mozilla.org/en-US/docs/Web/SVG)
	-->

	<svg id="pathway-image"
	version="1.1"
	baseProfile="full"
	xmlns="http://www.w3.org/2000/svg"
	xmlns:xlink="http://www.w3.org/1999/xlink"
	xmlns:ev="http://www.w3.org/2001/xml-events"
	width="100%"
	height="100%">

	<g>
	<title>pathway defs for pathvisio.js</title>
	<desc>
	This SVG file contains all the graphical elements (markers and symbols in defs as well as
			style data) used by the program pathvisio.js, which has two components: 
	1) a viewer for transforming GPML biological pathway data into an SVG visual representation and 
	2) an editor for creating both views and models for biological pathways.
	</desc>
	</g>

	<defs>

	<!-- ***************************
	CSS Style Sheet
	***************************

	Note: pathvisio.js assumes the default element color is black.
	-->

	<style type="text/css"><![CDATA[

	svg {
		color-interpolation: auto;
		image-rendering: auto;
		shape-rendering: auto;
		vector-effect: non-scaling-stroke;
		fill: white;
		stroke-width: 2px;
	}

	.default-element-color-stroke {
		stroke: black;
	}

	.default-element-color-fill {
		fill: black;
	}

	.default-background-color-stroke {
		stroke: white;
	}

	.default-background-color-fill {
		fill: white;
	}

	text {
		font-family: Sans-Serif;
		font-size: 10px;
		fill: black;
		stroke: none;
		text-anchor: middle;
	}

	.title-block {
		font-family: Sans-Serif;
		font-size: 10px;
		fill: red;
		stroke: none;
		text-anchor: start;
	}

	.title-block-property-name {
		font-weight: bold;
	}

	.group {
		fill-opacity: 0.098;
		stroke: gray;
		stroke-dasharray: 4,2;
		stroke-miterlimit: 1;
		stroke-width: 1px;
	}

	.group:hover {
		fill-opacity: 0.2;
		stroke-width: 1px;
	}

	.group-none {
		fill: rgb(180,180,100);
	}

	.group-group {
		fill: lightblue;
	      fill-opacity: 0;
	      stroke-width: 0;
	}

	.group-complex {
		fill: rgb(180,180,100);
		stroke-dasharray: 400000,1;
	}

	.group-pathway {
		fill: lightgreen;
	}

	.data-node {
		fill-opacity: 1;
		stroke: black;
		stroke-dasharray: 0;
		stroke-miterlimit: 1;
	}

	.gene-product {
		stroke: black;
	}

	text.gene-product {
		fill: black;  
		stroke: none;
	}

	.metabolite {
		stroke: blue;
	}

	text.metabolite {
		fill: blue;
		stroke: none;
	}

	.pathway {
		stroke: rgb(20,150,30);
	}

	text.pathway {
		fill: rgb(20,150,30);
		font-size: 10px;
		stroke: none;
	}

	.protein {
		stroke: black;
	}

	text.protein {
		fill: black;  
		stroke: none;
	}

	.rna {
		stroke: black;
	}

	text.rna {
		fill: black;  
		stroke: none;
	}

	.unknown {
		stroke: black;
	}

	text.unknown {
		fill: black;  
		stroke: none;
	}

	.label {
		stroke: black;
		stroke-width: 0;
		fill-opacity: 0;
		stroke-dasharray: 0;
		stroke-miterlimit: 1;
	}

	text.label {
		fill: black;  
		fill-opacity: 1;
		font-size: 10px;
		stroke: none;
	}

	.shape {
		fill-opacity: 0;
		stroke: black;
		stroke-dasharray: 0;
		stroke-miterlimit: 1;
	}

	text.shape {
		fill: black;  
		fill-opacity: 1;
		stroke: none;
	}

	.graphical-line {
		fill:none;
		stroke: black; 
		stroke-width: 1px; 
	}

	.interaction {
		fill:none;
		stroke: black; 
		stroke-width: 1px; 
	}

	marker {
		/* this is what should work per the spec
		   stroke-dasharray: none; */
		/* but I need to add this to make it work in Safari */
		stroke-dasharray: 9999999999999999999999999;
	}

	.broken-stroke {
		stroke-dasharray: 5,3;
	}
]]></style>

	<!-- ***************************
Markers (Arrowheads) 
	*************************** -->

	<!-- Here we generate a set of interaction markers for the default color (black). If we need other colors,
	we need to clone the black marker and set the color for the clone to the desired color using d3.js.
	I wish fill="currentColor" worked for markers, but that does not appear to be the case. -->

	<!-- arrow markers -->

	<marker id="arrow-start-black" 
	fill="black"
	markerUnits="strokeWidth"
	markerWidth="10" markerHeight="10"
	orient="auto"
	refX="0" refY="0"
	stroke="black"
	viewBox="0 -6 12 12">
	<path d="M0,0 L10,-5 L10,5 Z" stroke-width="1px"/>
	</marker>

	<marker id="arrow-end-black"
	fill="black"
	markerUnits="strokeWidth"
	markerWidth="10" markerHeight="10"
	orient="auto"
	refX="0" refY="0"
	stroke="black"
	viewBox="-12 -6 12 12">
	<path d="M0,0 L-10,-5 L-10,5 Z" stroke-width="1px"/>
	</marker>

	<!-- t-bar markers -->

	<marker id="t-bar-start-black"
	markerWidth="10" markerHeight="10"
	markerUnits="strokeWidth"
	orient="auto"
	refX="0" refY="0"
	stroke="black"
	viewBox="0 -6 12 12">
	<path d="M0,0 L10,0" stroke-width="2px" class="default-background-color-stroke"/>
	<path d="M10,-10 L10,10" stroke-width="2px"/>
	</marker>

	<marker id="t-bar-end-black"
	markerUnits="strokeWidth"
	markerWidth="10" markerHeight="10"
	orient="auto"
	refX="0" refY="0"
	stroke="black"
	viewBox="-12 -6 12 12">
	<path d="M0,0 L-10,0" stroke-width="2px" class="default-background-color-stroke"/>
	<path d="M-10,-10 L-10,10" stroke-width="2px"/>
	</marker>

	<!-- mim-binding markers -->

	<marker id="mim-binding-start-black" 
	fill="black"
	markerUnits="strokeWidth"
	markerWidth="10" markerHeight="10"
	orient="auto"
	refX="0" refY="0"
	stroke="black"
	viewBox="0 -6 12 12">
	<path d="M0,0 L10,-5 L10,5 Z" stroke-width="1px"/>
	</marker>

	<marker id="mim-binding-end-black"
	fill="black"
	markerUnits="strokeWidth"
	markerWidth="10" markerHeight="10"
	orient="auto"
	refX="0" refY="0"
	stroke="black"
	viewBox="-12 -6 12 12">
	<path d="M0,0 L-10,-5 L-10,5 Z" stroke-width="1px"/>
	</marker>

	<!-- mim-catalysis markers -->

	<marker id="mim-catalysis-start-black"
	class="default-background-color-fill"
	markerHeight="10"
	markerWidth="10"
	markerUnits="strokeWidth"
	orient="auto"
	refX="0" refY="0"
	stroke="black"
	viewBox="-1 -6 12 12">
	<circle cx="5" cy="0" r="5px" stroke-width="1px"/>
	</marker>

	<marker id="mim-catalysis-end-black"
	class="default-background-color-fill"
	markerHeight="10"
	markerUnits="strokeWidth"
	markerWidth="10"
	orient="auto"
	refX="5" refY="0"
	stroke="black"
	viewBox="-6 -6 12 12">
	<circle cx="0" cy="0" r="5px" stroke-width="1px"/>
	</marker>

	<!-- mim-cleavage markers are incorrect. TODO Replace marker defs. -->

	<marker id="mim-cleavage-start-black" 
	class="default-background-color-fill"
	markerHeight="10"
	markerWidth="10"
	markerUnits="strokeWidth"
	orient="auto"
	refX="0" refY="0"
	stroke="black"
	viewBox="-1 -6 12 12">
	<line stroke="#ff0000" id="svg_14" y2="-8.20383" x2="-8.19998" y1="9.79617" x1="9.80002" stroke-width="5" fill="none"/>
	<line transform="rotate(-90 1.20001 1.6962)" id="svg_15" stroke="#ff0000" y2="-7.3038" x2="-7.79999" y1="10.6962" x1="10.20001" stroke-width="5" fill="none"/>
	</marker>

	<marker id="mim-cleavage-end-black"
	class="default-background-color-fill"
	markerHeight="10"
	markerWidth="10"
	markerUnits="strokeWidth"
	orient="auto"
	refX="0" refY="0"
	stroke="black"
	viewBox="-1 -6 12 12">
	<line stroke="#ff0000" id="svg_14" y2="-8.20383" x2="-8.19998" y1="9.79617" x1="9.80002" stroke-width="5" fill="none"/>
	<line transform="rotate(-90 1.20001 1.6962)" id="svg_15" stroke="#ff0000" y2="-7.3038" x2="-7.79999" y1="10.6962" x1="10.20001" stroke-width="5" fill="none"/>
	</marker>

	<!-- mim-conversion markers are incorrect. TODO Replace marker defs. -->

	<marker id="mim-conversion-start-black" 
	fill="black"
	markerUnits="strokeWidth"
	markerWidth="10" markerHeight="10"
	orient="auto"
	refX="0" refY="0"
	stroke="black"
	viewBox="0 -6 12 12">
	<line stroke="#ff0000" id="svg_14" y2="-8.20383" x2="-8.19998" y1="9.79617" x1="9.80002" stroke-width="5" fill="none"/>
	<line transform="rotate(-90 1.20001 1.6962)" id="svg_15" stroke="#ff0000" y2="-7.3038" x2="-7.79999" y1="10.6962" x1="10.20001" stroke-width="5" fill="none"/>
	</marker>

	<marker id="mim-conversion-end-black"
	fill="black"
	markerUnits="strokeWidth"
	markerWidth="10" markerHeight="10"
	orient="auto"
	refX="0" refY="0"
	stroke="black"
	viewBox="-12 -6 12 12">
	<line stroke="#ff0000" id="svg_14" y2="-8.20383" x2="-8.19998" y1="9.79617" x1="9.80002" stroke-width="5" fill="none"/>
	<line transform="rotate(-90 1.20001 1.6962)" id="svg_15" stroke="#ff0000" y2="-7.3038" x2="-7.79999" y1="10.6962" x1="10.20001" stroke-width="5" fill="none"/>
	</marker>

	<!-- mim-covalent-bond markers are incorrect. TODO Replace marker defs. -->

	<marker id="mim-covalent-bond-start-black" 
	class="default-background-color-fill"
	markerHeight="10"
	markerWidth="10"
	markerUnits="strokeWidth"
	orient="auto"
	refX="0" refY="0"
	stroke="black"
	viewBox="-1 -6 12 12">
	<line stroke="#ff0000" id="svg_14" y2="-8.20383" x2="-8.19998" y1="9.79617" x1="9.80002" stroke-width="5" fill="none"/>
	<line transform="rotate(-90 1.20001 1.6962)" id="svg_15" stroke="#ff0000" y2="-7.3038" x2="-7.79999" y1="10.6962" x1="10.20001" stroke-width="5" fill="none"/>
	</marker>

	<marker id="mim-covalent-bond-end-black"
	class="default-background-color-fill"
	markerHeight="10"
	markerWidth="10"
	markerUnits="strokeWidth"
	orient="auto"
	refX="0" refY="0"
	stroke="black"
	viewBox="-1 -6 12 12">
	<line stroke="#ff0000" id="svg_14" y2="-8.20383" x2="-8.19998" y1="9.79617" x1="9.80002" stroke-width="5" fill="none"/>
	<line transform="rotate(-90 1.20001 1.6962)" id="svg_15" stroke="#ff0000" y2="-7.3038" x2="-7.79999" y1="10.6962" x1="10.20001" stroke-width="5" fill="none"/>
	</marker>

	<!-- mim-inhibition markers -->

	<marker id="mim-inhibition-start-black" 
	markerHeight="10"
	markerWidth="10"
	markerUnits="strokeWidth"
	orient="auto"
	refX="0" refY="0"
	stroke="black"
	viewBox="-1 -6 12 12">
	<path d="M0,0 L10,0" stroke-width="2px" class="default-background-color-stroke"/>
	<path d="M10,-10 L10,10" stroke-width="2px"/>
	</marker>

	<marker id="mim-inhibition-end-black"
	markerUnits="strokeWidth"
	markerWidth="10" markerHeight="10"
	orient="auto"
	refX="0" refY="0"
	stroke="black"
	viewBox="-12 -6 12 12">
	<path d="M0,0 L-10,0" stroke-width="2px" class="default-background-color-stroke"/>
	<path d="M-10,-10 L-10,10" stroke-width="2px"/>
	</marker>

	<!-- mim-modification markers are incorrect. TODO Replace marker defs. -->

	<marker id="mim-modification-start-black" 
	fill="black"
	markerUnits="strokeWidth"
	markerWidth="10" markerHeight="10"
	orient="auto"
	refX="0" refY="0"
	stroke="black"
	viewBox="0 -6 12 12">
	<line stroke="#ff0000" id="svg_14" y2="-8.20383" x2="-8.19998" y1="9.79617" x1="9.80002" stroke-width="5" fill="none"/>
	<line transform="rotate(-90 1.20001 1.6962)" id="svg_15" stroke="#ff0000" y2="-7.3038" x2="-7.79999" y1="10.6962" x1="10.20001" stroke-width="5" fill="none"/>
	</marker>

	<marker id="mim-modification-end-black"
	fill="black"
	markerUnits="strokeWidth"
	markerWidth="10" markerHeight="10"
	orient="auto"
	refX="0" refY="0"
	stroke="black"
	viewBox="-12 -6 12 12">
	<line stroke="#ff0000" id="svg_14" y2="-8.20383" x2="-8.19998" y1="9.79617" x1="9.80002" stroke-width="5" fill="none"/>
	<line transform="rotate(-90 1.20001 1.6962)" id="svg_15" stroke="#ff0000" y2="-7.3038" x2="-7.79999" y1="10.6962" x1="10.20001" stroke-width="5" fill="none"/>
	</marker>

	<!-- mim-necessary-stimulation markers are incorrect. TODO Replace marker defs. -->

	<marker id="mim-necessary-stimulation-start-black"
	class="default-background-color-fill"
	markerWidth="10" markerHeight="10"
	markerUnits="strokeWidth"
	orient="auto"
	refX="0" refY="0"
	stroke="black"
	viewBox="0 -6 16 12">
	<polygon fill="none" stroke="#000000" stroke-width="1" stroke-miterlimit="10" points="7.459,-4.286 0.82,0 7.459,3.712"/>
	<line fill="none" stroke="#000000" stroke-width="1" stroke-miterlimit="10" x1="7.459" y1="0" x2="15.959" y2="0"/>
	<line fill="none" stroke="#000000" stroke-width="1" stroke-miterlimit="10" x1="11.418" y1="4.458" x2="11.418" y2="-5.54"/>
	</marker>

	<marker id="mim-necessary-stimulation-end-black"
	class="default-background-color-fill"
	markerUnits="strokeWidth"
	markerWidth="10" markerHeight="10"
	orient="auto"
	refX="0" refY="0"
	stroke="black"
	viewBox="-16 -6 16 12">
	<polygon fill="none" stroke="#000000" stroke-width="1" stroke-miterlimit="10" points="-7.459,-4.286 -0.82,0 -7.459,3.712"/>
	<line fill="none" stroke="#000000" stroke-width="1" stroke-miterlimit="10" x1="-7.459" y1="0" x2="-15.959" y2="0"/>
	<line fill="none" stroke="#000000" stroke-width="1" stroke-miterlimit="10" x1="-11.418" y1="4.458" x2="-11.418" y2="-5.54"/>
	</marker>

	<!-- mim-stimulation markers -->

	<marker id="mim-stimulation-start-black"
	markerWidth="10" markerHeight="10"
	markerUnits="strokeWidth"
	orient="auto"
	refX="0" refY="0"
	stroke="black"
	viewBox="0 -6 12 12">
	<path d="M0,0 L10,-5 L10,5 Z" stroke-width="1px"/>
	</marker>

	<marker id="mim-stimulation-end-black"
	markerUnits="strokeWidth"
	markerWidth="10" markerHeight="10"
	orient="auto"
	refX="0" refY="0"
	stroke="black"
	viewBox="-12 -6 12 12">
	<path d="M0,0 L-10,-5 L-10,5 Z" stroke-width="1px"/>
	</marker>

	<!-- mim-transcription-translation markers are incorrect. TODO Replace marker defs. -->

	<marker id="mim-transcription-translation-start-black"
	class="default-background-color-fill"
	markerWidth="10" markerHeight="10"
	markerUnits="strokeWidth"
	orient="auto"
	refX="0" refY="0"
	stroke="black"
	viewBox="0 -6 12 12">
	<line stroke="#ff0000" id="svg_14" y2="-8.20383" x2="-8.19998" y1="9.79617" x1="9.80002" stroke-width="5" fill="none"/>
	<line transform="rotate(-90 1.20001 1.6962)" id="svg_15" stroke="#ff0000" y2="-7.3038" x2="-7.79999" y1="10.6962" x1="10.20001" stroke-width="5" fill="none"/>
	</marker>

	<marker id="mim-transcription-translation-end-black"
	class="default-background-color-fill"
	markerUnits="strokeWidth"
	markerWidth="10" markerHeight="10"
	orient="auto"
	refX="0" refY="0"
	stroke="black"
	viewBox="-12 -6 12 12">
	<line stroke="#ff0000" id="svg_14" y2="-8.20383" x2="-8.19998" y1="9.79617" x1="9.80002" stroke-width="5" fill="none"/>
	<line transform="rotate(-90 1.20001 1.6962)" id="svg_15" stroke="#ff0000" y2="-7.3038" x2="-7.79999" y1="10.6962" x1="10.20001" stroke-width="5" fill="none"/>
	</marker>

	<!-- mim-gap markers. Says "...-black", but there is actually no black color in the marker. -->
	<!-- 
	Boxes filled with background color to blank out the end of lines, such as for double lines.
	TODO This could be refactored to make the shape match the viewbox.
	It can overlap the side of the shape, blanking out a small part of it when the edge is at an angle.
	-->

	<marker id="mim-gap-start-black"
	class="default-background-color-fill"
	markerUnits="strokeWidth"
	markerWidth="10" markerHeight="10"
	orient="auto"
	refX="0" refY="0"
	stroke="none"
	viewBox="0 -6 12 12">
	<rect x="-7" y="-2.5" width="10" height="5" />
	</marker>

	<marker id="mim-gap-end-black"
	class="default-background-color-fill"
	markerUnits="strokeWidth"
	markerWidth="10" markerHeight="10"
	orient="auto"
	refX="0" refY="0"
	stroke="none"
	viewBox="-12 -6 12 12">
	<rect x="-3" y="-2.5" width="10" height="5" />
	</marker>

	<!-- ***************************
Symbols (shapes) 
	*************************** -->

	<!-- because of the viewbox, these symbols can be stretched to any size,
	but the stroke width will appear to increase as the symbol increases
	in height or width, ie., some SVG renderers display the E and W sides of 
	a rect transformed with "scale(2, 1)" as thicker than the N and S sides.
	I need to figure out how to correct this. Using the vector-effect attribute set to
	"non-scaling-stroke" works in Chrome, but not all renderers support this attribute.
	TODO Is there a better way to address this?

	Some symbols such as "nucleus" appear to be cropped at the top and left sides in Chrome.
	TODO redraw symbols so they are entirely within viewbox.
	-->

	<!-- Shape is placeholder until it can be replaced with correct shape. -->

	<symbol id="arc" viewBox="0 0 100 50" preserveAspectRatio="none">
	<desc>arc</desc>
	<rect x="0" y="0" width="100" height="50" vector-effect="non-scaling-stroke"></rect>
	<path d="m9.90539,9.46855l0,24.81445l30,0l0,-24.81445l-30,0zm25.27735,22.68503l-20.55551,0l0,-20.5556l20.55551,0l0,20.5556zm-15.5557,-12.49887c1.58443,0 2.8704,-1.28815 2.8704,-2.87552c0,-1.58035 -1.28598,-2.86841 -2.8704,-2.86841c-1.58524,0 -2.86949,1.28806 -2.86949,2.86841c0,1.58737 1.28425,2.87552 2.86949,2.87552zm14.44598,2.4957l-5.46353,-5.45935l-7.68539,7.68411l-2.13031,-2.12943l-3.05775,3.05859l0,5.73676l18.33698,0l0,-8.89069z" stroke-linecap="null" stroke-linejoin="null" stroke-dasharray="null" stroke-width="1px" stroke="#000000" fill="none"/>
	</symbol>

	<!-- TO-DO: Brace style is not ideal -->

	<symbol id="brace" viewBox="0 0 100 50" preserveAspectRatio="none">
	<desc>brace</desc>
	<path d="m1490,1055c0,-1 -5,-3 -24,-3l-32,-4l-36,-13l-8,-7" vector-effect="non-scaling-stroke"/>
  	<polyline points="1430,1051 1430,1050 " vector-effect="non-scaling-stroke"/>
  	<path transform="rotate(90, 50.5312, 20.3125)" d="m58.36591,68.31439c-4.32813,0 -7.83624,-0.58405 -7.83624,-1.30634l0,-45.38824c0,-0.72241 -3.50806,-1.30646 -7.8363,-1.30646l0,0c4.32825,0 7.8363,-0.58386 7.8363,-1.30524l0,-45.38904l0,0c0,-0.72162 3.50812,-1.30536 7.83624,-1.30536" vector-effect="non-scaling-stroke"/>
	</symbol>

	<!-- Shape is placeholder until it can be replaced with correct shape. -->

	<symbol id="cell" viewBox="0 0 100 50" preserveAspectRatio="none">
	<desc>cell</desc>
	<rect x="0" y="0" width="100" height="50" vector-effect="non-scaling-stroke"></rect>
	<path d="m9.90539,9.46855l0,24.81445l30,0l0,-24.81445l-30,0zm25.27735,22.68503l-20.55551,0l0,-20.5556l20.55551,0l0,20.5556zm-15.5557,-12.49887c1.58443,0 2.8704,-1.28815 2.8704,-2.87552c0,-1.58035 -1.28598,-2.86841 -2.8704,-2.86841c-1.58524,0 -2.86949,1.28806 -2.86949,2.86841c0,1.58737 1.28425,2.87552 2.86949,2.87552zm14.44598,2.4957l-5.46353,-5.45935l-7.68539,7.68411l-2.13031,-2.12943l-3.05775,3.05859l0,5.73676l18.33698,0l0,-8.89069z" stroke-linecap="null" stroke-linejoin="null" stroke-dasharray="null" stroke-width="1px" stroke="#000000" fill="none"/>
	</symbol>

	<symbol id="group-none" viewBox="0 0 1000 1000" preserveAspectRatio="none">
	<desc>Group with style 'none'</desc>
	<rect x="0" y="0" width="1000" height="1000" vector-effect="non-scaling-stroke"></rect>
	</symbol>

	<symbol id="group-group" viewBox="0 0 120 180" preserveAspectRatio="none">
	<desc>Group with style 'group'</desc>
	<rect x="1" y="1" width="118" height="178" vector-effect="non-scaling-stroke"></rect>
	</symbol>

	<!-- Shape is placeholder until it can be replaced with correct shape. It should probably be a rect with stroke-line=miter and stroke-miter-limit=100 -->

	<symbol id="group-complex" viewBox="0 0 1000 1000" preserveAspectRatio="none">
	<desc>Group with style 'complex'</desc>
	<path d="m250,0l500,0l250,250l0,500l-250,250l-500,0l-250,-250l0,-500l250,-250z" vector-effect="non-scaling-stroke"/>
	</symbol>

	<symbol id="group-pathway" viewBox="0 0 120 180" preserveAspectRatio="none">
	<desc>Group with style 'pathway'</desc>
	<rect x="1" y="1" width="118" height="178" vector-effect="non-scaling-stroke"></rect>
	</symbol>

	<!-- Endoplasmic reticulum -->

	<symbol id="endoplasmic-reticulum" viewBox="0 0 90 170" preserveAspectRatio="xMinYMin meet">
	<desc>endoplasmic-reticulum</desc>
	<path d="m65.40385,92.7533c-5.20141,-32.67866 21.74559,-56.96246 21.64119,-79.1486c-0.31837,-8.53732 -9.70022,-15.62638 -16.91378,-9.36792c-15.75915,13.83169 -14.47215,51.46785 -19.61002,74.17451c-0.32978,6.33932 -6.80883,4.33672 -7.16662,-0.8552c-5.411,-20.00175 15.84621,-43.00589 5.51232,-51.68005c-18.15753,-14.34845 -26.58879,37.1514 -20.40797,50.61221c6.93169,24.89706 -2.01553,42.86516 -6.23931,27.21597c-2.25837,-9.31905 5.60969,-19.4674 -0.74306,-28.41115c-3.99491,-4.91747 -10.87116,-1.13487 -14.93933,5.43445c-11.92135,18.85891 4.37376,71.97491 19.38746,63.48314c4.34487,-3.44214 -2.99258,-15.2823 3.61323,-16.85943c6.74865,-1.42706 4.78686,10.86941 7.10911,16.20504c2.13354,7.11452 4.46878,14.67438 9.95292,20.41447c4.42632,4.45609 14.14375,3.70969 15.50973,-3.43872c1.87894,-16.26825 -24.1469,-49.80544 -9.88488,-54.93908c17.15929,-4.76783 4.39141,41.87978 22.48117,52.15134c8.78703,3.56215 14.46247,-1.09232 13.69819,-7.08261c-2.5393,-19.78145 -23.24459,-39.83279 -23.0863,-58.22012" vector-effect="non-scaling-stroke"/>
	</symbol>

	<!-- Extracellular region -->

	<symbol id="extracellular-region" viewBox="0 0 100 50" preserveAspectRatio="xMinYMin meet" >
	<desc>extracellular-region</desc>
	<rect x="1" y="1" rx="10" ry="10" width="98" height="48" vector-effect="non-scaling-stroke"></rect>
	</symbol>

	<!-- Golgi apparatus -->

	<symbol id="golgi-apparatus" viewBox="0 0 90 160" preserveAspectRatio="xMinYMin meet">
	<desc>golgi-apparatus</desc>
	<path d="m58.65843,28.11755c-24.50516,-32.99763 41.17429,-33.39223 28.21526,-5.32301c-9.71986,20.5057 -18.83401,64.15632 -1.0392,109.49673c14.6937,29.87001 -46.07236,30.63614 -30.6302,-1.62207c12.52093,-32.46732 11.35227,-88.65689 3.45415,-102.55164z" vector-effect="non-scaling-stroke"/>
   	<path d="m28.58309,37.49903c-11.90942,-23.6472 32.9941,-21.90384 20.31397,0.74038c-4.48815,8.19113 -6.38173,67.94992 1.28093,82.79956c9.41282,20.52358 -36.25558,21.36005 -22.62337,-2.48373c7.67286,-19.15643 11.55851,-57.707 1.02847,-81.05621z" vector-effect="non-scaling-stroke"/>
   	<path d="m27.0266,55.09717c1.74825,12.66316 3.00553,18.47076 -1.63657,42.33447c-4.11847,14.33428 -3.9733,18.0331 -12.94746,21.42337c-7.37549,1.83031 -13.09368,-10.80333 -5.28974,-17.78268c5.35863,-6.20563 6.77712,-12.00945 7.34855,-25.33208c-0.26399,-10.50756 0.89887,-17.46264 -5.92277,-22.02575c-8.41397,-2.42252 -6.71858,-18.2471 5.32368,-15.29968c6.45518,1.13344 11.34736,9.44824 13.1243,16.68235z" vector-effect="non-scaling-stroke"/>
	</symbol>

	<!-- this is the dragbox shape for any set of elements that have been grouped. this only shows up in edit mode. -->

	<symbol id="group-drag-box" viewBox="0 0 120 180" preserveAspectRatio="none">
	<desc>Group</desc>
	<rect x="0" y="0" width="120" height="180" vector-effect="non-scaling-stroke"></rect>
	</symbol>

	<!-- Shape is placeholder until it can be replaced with correct shape. -->

	<symbol id="hexagon" viewBox="0 0 75 65" preserveAspectRatio="xMinYMin meet">
	<desc>hexagon</desc>
	<path d="m2.41939,30.71108l14.4293,-28.85462l38.47667,0l14.42524,28.85462l-14.42524,28.85848l-38.47667,0l-14.4293,-28.85848z" vector-effect="non-scaling-stroke"/>
	</symbol>

	<!-- Shape is placeholder until it can be replaced with correct shape. -->

	<symbol id="mim-degradation" viewBox="0 0 90 90" preserveAspectRatio="xMinYMin meet">
	<desc>mim-degradation</desc>
	<circle r="36.94531" cy="40.5" cx="47" vector-effect="non-scaling-stroke"/>
  	<line transform="rotate(10, 47.5, 41.9492)" y2="73.89744" x2="92" y1="10" x1="3" vector-effect="non-scaling-stroke"/>
  	</symbol>

	<!-- mitochondria -->

	<symbol id="mitochondria" viewBox="0 0 100 65.5" preserveAspectRatio="xMinYMin meet">
	<desc>Mitochondria</desc>
	<path
	vector-effect="non-scaling-stroke"
	stroke-linecap="square"
	stroke-miterlimit="10"
	d="M95.753,46.125  c0,7.808-5.905,14.14-13.189,14.14H17.442c-7.284,0-13.189-6.332-13.189-14.14v-26.22c0-7.81,5.905-14.141,13.189-14.141h65.122  c7.284,0,13.189,6.331,13.189,14.141V46.125z"/>
	<g opacity="0.3" vector-effect="non-scaling-stroke">
	<path
	stroke-width="2"
	stroke-linecap="square"
	stroke-miterlimit="10"
	d="M12.868,16.743    c4.516-0.482,3.961,11.073,8.468,10.519c8.562,0.02,3.086-18.296,10.245-18.418c7.211-0.122,2.325,19.465,9.526,19.135    c7.899-0.364,0.525-21.407,8.42-21.854c7.967-0.448,3.021,20.825,10.999,20.945c6.775,0.104,3.132-17.967,9.894-17.498    c7.443,0.516,0.688,19.397,8.053,20.583c4.914,0.79,4.575-11.867,9.525-11.336c11.517,4.925,8.929,24.503-2.256,29.018    c-3.248,0.454-4.104-6.826-7.361-6.438c-5.785,0.688-4.121,14.484-9.938,14.169c-5.422-0.297-2.304-14.063-7.731-14.124    c-7.204-0.076-3.475,18.8-10.676,18.521c-6.355-0.244-1.791-16.217-8.098-17.024c-5.88-0.752-5.566,14.41-11.412,13.442    c-6.467-1.069-0.486-17.337-6.995-18.112c-3.859-0.459-2.74,9.36-6.627,9.454C2.399,43.865,0.606,21.916,12.868,16.743z"/>
	</g>
	</symbol>


	<!-- Shape is placeholder until it can be replaced with correct shape. -->

	<symbol id="nucleus" viewBox="0 0 100 50" preserveAspectRatio="xMinYMin meet">
	<desc>nucleus</desc>
	<rect x="0" y="0" width="100" height="50" vector-effect="non-scaling-stroke"></rect>
	<path d="m9.90539,9.46855l0,24.81445l30,0l0,-24.81445l-30,0zm25.27735,22.68503l-20.55551,0l0,-20.5556l20.55551,0l0,20.5556zm-15.5557,-12.49887c1.58443,0 2.8704,-1.28815 2.8704,-2.87552c0,-1.58035 -1.28598,-2.86841 -2.8704,-2.86841c-1.58524,0 -2.86949,1.28806 -2.86949,2.86841c0,1.58737 1.28425,2.87552 2.86949,2.87552zm14.44598,2.4957l-5.46353,-5.45935l-7.68539,7.68411l-2.13031,-2.12943l-3.05775,3.05859l0,5.73676l18.33698,0l0,-8.89069z" stroke-linecap="null" stroke-linejoin="null" stroke-dasharray="null" stroke-width="1px" stroke="#000000" fill="none"/>
	</symbol>

	<!-- Shape is placeholder until it can be replaced with correct shape. -->

	<symbol id="organelle" viewBox="0 0 100 50" preserveAspectRatio="none">
	<desc>organelle</desc>
	<rect x="0" y="0" width="100" height="50" vector-effect="non-scaling-stroke"></rect>
	<path d="m9.90539,9.46855l0,24.81445l30,0l0,-24.81445l-30,0zm25.27735,22.68503l-20.55551,0l0,-20.5556l20.55551,0l0,20.5556zm-15.5557,-12.49887c1.58443,0 2.8704,-1.28815 2.8704,-2.87552c0,-1.58035 -1.28598,-2.86841 -2.8704,-2.86841c-1.58524,0 -2.86949,1.28806 -2.86949,2.86841c0,1.58737 1.28425,2.87552 2.86949,2.87552zm14.44598,2.4957l-5.46353,-5.45935l-7.68539,7.68411l-2.13031,-2.12943l-3.05775,3.05859l0,5.73676l18.33698,0l0,-8.89069z" stroke-linecap="null" stroke-linejoin="null" stroke-dasharray="null" stroke-width="1px" stroke="#000000" fill="none"/>
	</symbol>

	<!-- oval -->

	<symbol id="oval" viewBox="0 0 105 50" preserveAspectRatio="xMinYMin meet">
	<desc>Ellipse</desc>
	<ellipse cx="52" cy="26" rx="49" ry="22.5" vector-effect="non-scaling-stroke"></ellipse>
	</symbol>

	<!-- pentagon -->

	<symbol id="pentagon" viewBox="0 0 50 55" preserveAspectRatio="xMinYMin meet">
	<desc>pentagon</desc>
	<path transform="rotate(90, 23.4965, 25.5215)" d="m-0.00193,20.24006l23.50095,-17.09823l23.49858,17.09823l-8.97612,27.66264l-29.04728,0l-8.97613,-27.66264z" vector-effect="non-scaling-stroke"/>
	</symbol>

	<!-- rectangle -->

	<symbol id="rectangle" viewBox="0 0 100 50" preserveAspectRatio="xMinYMin meet">
	<desc>Rectangle</desc>
	<rect x="1" y="1" width="98" height="49" vector-effect="non-scaling-stroke"></rect>
	</symbol>

	<!-- rounded-rectangle -->

	<symbol id="rounded-rectangle" viewBox="0 0 100 50" preserveAspectRatio="xMinYMin meet">
	<desc>Rounded Rectangle</desc>
	<rect x="1" y="1" rx="10" ry="10" width="98" height="49" vector-effect="non-scaling-stroke"></rect>
	</symbol>

	<!-- Sarcoplasmic reticulum -->

	<symbol id="sarcoplasmic-reticulum" viewBox="0 0 70 170" preserveAspectRatio="xMinYMin meet">
	<desc>sarcoplasmic-reticulum</desc>
	<path d="m36.4444,1.89558c-34.99915,2.22332 -39.2673,37.74125 -28.65384,63.19647c10.07443,30.40252 -20.2884,49.97363 2.77805,81.84377c18.18629,21.73956 50.09141,10.11908 56.35627,-14.20186c6.37779,-25.27418 -11.8396,-43.13985 -3.5604,-67.8931c11.73406,-32.95808 -0.83911,-63.20087 -26.92008,-62.94527z" vector-effect="non-scaling-stroke"/>	
	</symbol>

	<!-- Shape is placeholder until it can be replaced with correct shape. -->

	<symbol id="triangle" viewBox="0 0 50 50" preserveAspectRatio="xMinYMin meet">
	<desc>triangle</desc>
	<polygon points="1,49 49,24 1,1" vector-effect="non-scaling-stroke"/>
	</symbol>

	<!-- Shape is placeholder until it can be replaced with correct shape. -->

	<symbol id="vesicle" viewBox="0 0 64 64" preserveAspectRatio="xMinYMin meet">
	<desc>vesicle</desc>
	<circle cx="32" cy="32" r="30" stroke-width="2"/>	
	</symbol> 

	<!-- TODO Update placeholders for SVG definitions of shapes.

	For current symbols in GIF and/or BMP format, see
	http://svn.bigcat.unimaas.nl/pathvisio/trunk/modules/org.pathvisio.core/resources/

	Should we add SBGN? Available as SVG here: http://www.sbgn.org/Documents/Templates 
	Not sure about adding lines. Should they be only defined in CSS?
	-->

	</defs>

	</svg>
