<?xml version="1.0" encoding="UTF-8" standalone="no"?>

<!-- 
This file serves as our template for standardized GPML pathway visual representations.
This file can be used for many purposes outside of pathvisio.js, including allowingar
other projects to work better with GPML. For purposes of pathvisio.js, this file will
be the starting point for our JavaScript rendering of pathways. Every time we want to
render a GPML file on the browser, we will read a copy of this file into D3.js and
modify the copy by adding "use" statements, cloning markers, etc. in order to create
the desired pathway illustration in SVG.

The XML declaration above is taken from an example from the W3C 
<http://www.w3.org/TR/SVG/images/struct/use04.svg>,
except I added:
encoding="UTF-8" 
We will want to change standalone to yes if we keep the CSS and
JS all inside this document.

Doctypes are not needed for SVG, and jwatt discourages their use:
https://jwatt.org/svg/authoring/.

Style guides can be arbitrary, but for consistency of SVG markup for the pathvisio.js project,
	I suggest using JS Watt's SVG authoring advice and Google's HTML and JavaScript Guides:
	https://jwatt.org/svg/authoring/
	http://google-styleguide.googlecode.com/svn/trunk/htmlcssguide.xml
	http://google-styleguide.googlecode.com/svn/trunk/javascriptguide.xml

JS Watt's advice is referenced from MDN:
https://developer.mozilla.org/en-US/docs/Web/SVG

For testing, we will ensure this SVG file renders correctly with the following browsers and graphics programs:
Chrome (latest release)
	Uses Skia graphics library
Firefox (latest release)
	Uses Azure graphics library
	Safari (latest release)
	Android Browser (latest release)
	iOS Browser (latest release)
	Internet Explorer (IE9 and subsequent versions)
Squiggle SVG browser (latest release)
	Uses Batik 
	Available for download at http://xmlgraphics.apache.org/batik/download.html
SVG-Edit (latest release)
	Version 2.6 (latest release as of 2013-07-08) available for download at 
	http://svg-edit.googlecode.com/svn/branches/2.6/editor/svg-editor.html
	Inkscape
	Uses livarot rendering engine but is in process of transitioning to Cairo
	Available for download at http://inkscape.org/

	Optional additional tests:
	SvgWeb
	Adobe Illustrator (CS6)
Either convert SVG to PDF and import PDF into Illustrator or convert SVG to .ai (Illustrator format)
	with a converter like Uniconverter, available for download at
	http://sk1project.org/modules.php?name=Products&product=uniconvertor
	Opening this SVG directly with Illustrator does not work well.
	In the future, we could use Uniconverter on the server to make it possible to download pathway images in
	.ai (Illustrator) and .cdr (CorelDraw) formats.

	For more information on SVG, these references are helpful:
	[W3 Spec](http://www.w3.org/TR/SVG/expanded-toc.html)
	[MDN on SVG](https://developer.mozilla.org/en-US/docs/Web/SVG)
	-->

	<svg id="pathway-image"
	version="1.1"
	baseProfile="full"
	xmlns="http://www.w3.org/2000/svg"
	xmlns:xlink="http://www.w3.org/1999/xlink"
	xmlns:ev="http://www.w3.org/2001/xml-events"
	width="100%"
	height="100%">

	<g>
	<title>pathway defs for pathvisio.js</title>
	<desc>
	This SVG file contains all the graphical elements (markers and symbols in defs as well as
			style data) used by the program pathvisio.js, which has two components: 
	1) a viewer for transforming GPML biological pathway data into an SVG visual representation and 
	2) an editor for creating both views and models for biological pathways.
	</desc>
	</g>

	<defs>

	<!-- ***************************
	CSS Style Sheet
	***************************

	Note: pathvisio.js assumes the default element color is black.
	-->

	<style type="text/css"><![CDATA[

	svg {
		color-interpolation: auto;
		image-rendering: auto;
		shape-rendering: auto;
		vector-effect: non-scaling-stroke;
		fill: white;
		stroke-width: 1px;
	}

	.drawing-board-color-fill {
		fill: white;
	}

	.drawing-board-color-stroke {
		stroke: white;
	}

	text {
		font-family: Sans-Serif, Helvetica, Arial;
		font-size: 10px;
		fill: black;
		fill-opacity: 1;
		stroke: none;
		text-anchor: middle;
		font-size: 10px;
		stroke: none;
	}

	.info-box {
		font-family: Sans-Serif;
		font-size: 10px;
		fill: black;
		stroke: none;
		text-anchor: start;
	}

	.info-box-property-name {
		font-weight: bold;
	}

	use.group {
		fill-opacity: 0.098;
		stroke: gray;
		stroke-miterlimit: 1;
		stroke-width: 1px;
	}

	use.group:hover {
		fill-opacity: 0.2;
		stroke-width: 1px;
	}

	use.group-none {
		fill: rgb(180,180,100);
	}

	use.group-group {
		fill-opacity: 0;
		stroke-width: 0;
	}

	use.group-complex {
		fill: rgb(180,180,100);
	}

	use.group-pathway {
		fill: lightgreen;
	}

	use.data-node {
		fill-opacity: 1;
		stroke: black;
		stroke-dasharray: 0;
		stroke-miterlimit: 1;
	}

	use.gene-product {
	}

	use.metabolite {
		stroke: blue;
	}

	text.metabolite {
		fill: blue;
	}

	use.pathway {
		stroke: rgb(20,150,30);
		fill-opacity: 0;
	}

	text.pathway {
		fill: rgb(20,150,30);
		fill-opacity: 1;
		stroke: none;
	}

	use.protein {
	}

	use.rna {
	}

	use.unknown {
	}

	use.label {
		stroke: black;
		stroke-width: 0;
		fill-opacity: 0;
		stroke-dasharray: 0;
		stroke-miterlimit: 1;
	}

	use.shape {
		fill-opacity: 0;
		stroke: black;
		stroke-dasharray: 0;
		stroke-miterlimit: 1;
	}

	use.shape-none {
		fill: none;
		fill-opacity: 0;
		stroke: none;
	}

	use.cellular-component {
		fill-opacity: 0;
		stroke: "#C0C0C0";
	}

	.graphical-line {
		fill:none;
		stroke: black; 
		stroke-width: 1px; 
	}

	.interaction {
		fill:none;
		stroke: black; 
		stroke-width: 1px; 
	}

	marker {
		/* this is what should work per the spec
		   stroke-dasharray: none; */
		/* but I need to add this to make it work in Safari */
		stroke-dasharray: 9999999999999999999999999;
	}

	.dashed-stroke {
		stroke-dasharray: 5,3;
	}
]]></style>

	<!-- ***************************
	Markers (Arrowheads) 
	*************************** -->

	<!-- Here we generate a set of interaction markers for the default color (black). If we need other colors,
	we need to clone the black marker and set the color for the clone to the desired color using d3.js.
	I wish fill="currentColor" worked for markers, but that does not appear to be the case. -->

	<!-- Each marker includes a small rectangle with a drawing-board-color-fill color to obscure the
	ends of lines that might otherwise show up beneath the marker. Double lines require their own special
	obscuring rects and are included as a double-line-hack-start/end marker, defined here and added in
	gpml2json.js -->

	<!-- arrow markers: triangular polygons, no stroke -->

	<marker id="arrow-start-black" 
	fill="black"
	markerUnits="strokeWidth"
	markerWidth="12" markerHeight="12"
	orient="auto"
	refX="0" refY="0"
	viewBox="0 -6 12 12">
	<rect class="drawing-board-color-fill" stroke="none" x="0" y="-0.6" width="2" height="1.2" />
	<polygon stroke-width="0" points="12,5 0,0 12,-5"/>
	</marker>

	<marker id="arrow-end-black"
	fill="black"
	markerUnits="strokeWidth"
	markerWidth="12" markerHeight="12"
	orient="auto"
	refX="0" refY="0"
	viewBox="-12 -6 12 12">
	<rect class="drawing-board-color-fill" stroke="none" x="-2" y="-0.6" width="2" height="1.2" />
	<polygon stroke-width="0" points="-12,5 0,0 -12,-5"/>
	</marker>


	<!-- mim-conversion markers: triangular polygons, no stroke -->

	<marker id="mim-conversion-start-black" 
	fill="black"
	markerUnits="strokeWidth"
	markerWidth="12" markerHeight="12"
	orient="auto"
	refX="0" refY="0"
	viewBox="0 -6 12 12">
	<rect class="drawing-board-color-fill" stroke="none" x="0" y="-0.6" width="2" height="1.2" />
	<polygon stroke-width="0" points="11,5 0,0 11,-5"/>
	</marker>

	<marker id="mim-conversion-end-black"
	fill="black"
	markerUnits="strokeWidth"
	markerWidth="12" markerHeight="12"
	orient="auto"
	refX="0" refY="0"
	viewBox="-12 -6 12 12">
	<rect class="drawing-board-color-fill" stroke="none" x="-2" y="-0.6" width="2" height="1.2" />
	<polygon stroke-width="0" points="-11,5 0,0 -11,-5"/>
	</marker>

	<!-- mim-stimulation markers: triangular polygons, drawing-board fill, black stroke -->

	<marker id="mim-stimulation-start-black"
	class="drawing-board-color-fill"
	stroke="black"
	markerWidth="12" markerHeight="12"
	markerUnits="strokeWidth"
	orient="auto"
	refX="0" refY="0"
	viewBox="0 -6 12 12">
	<rect stroke="none" x="0" y="-0.6" width="2" height="1.2" />
	<polygon stroke-width="1" points="11,5 0,0 11,-5"/>
	</marker>

	<marker id="mim-stimulation-end-black"
	class="drawing-board-color-fill"
	stroke="black"
	markerUnits="strokeWidth"
	markerWidth="12" markerHeight="12"
	orient="auto"
	refX="0" refY="0"
	viewBox="-12 -6 12 12">
	<rect stroke="none" x="-2" y="-0.6" width="2" height="1.2" />
	<polygon stroke-width="1" points="-11,5 0,0 -11,-5"/>
	</marker>

	<!-- mim-necessary-stimulation markers: triangular polygons, drawing-board fill, black stroke; and vertical line -->

	<marker id="mim-necessary-stimulation-start-black"
	class="drawing-board-color-fill"
	stroke="black"
	markerWidth="12" markerHeight="12"
	markerUnits="strokeWidth"
	orient="auto"
	refX="0" refY="0"
	viewBox="0 -6 15 12">
	<rect stroke="none" x="0" y="-0.6" width="2" height="1.2" />
	<line fill="none" stroke-width="1" x1="14" y1="-6" x2="14" y2="6"/>
	<polygon stroke-width="1" points="9,5 0,0 9,-5"/>
	</marker>

	<marker id="mim-necessary-stimulation-end-black"
	class="drawing-board-color-fill"
	stroke="black"
	markerUnits="strokeWidth"
	markerWidth="12" markerHeight="12"
	orient="auto"
	refX="0" refY="0"
	viewBox="-15 -6 15 12">
	<rect stroke="none" x="-2" y="-0.6" width="2" height="1.2" />
	<line fill="none" stroke-width="1" x1="-14" y1="-6" x2="-14" y2="6"/>
	<polygon stroke-width="1" points="-9,5 0,0 -9,-5"/>
	</marker>

	<!-- t-bar markers: vertical line; and extended drawing-board rect -->

	<marker id="t-bar-start-black"
	class="drawing-board-color-fill"
	stroke="black"
	markerWidth="16" 
	markerHeight="16"
	markerUnits="strokeWidth"
	orient="auto"
	refX="0" refY="0"
	viewBox="0 -6 12 12">
	<rect stroke="none" x="0" y="-0.6" width="5" height="1.2" />
	<line fill="none" stroke-width="1.6" x1="5" y1="-6" x2="5" y2="6"/>
	</marker>

	<marker id="t-bar-end-black"
	class="drawing-board-color-fill"
	stroke="black"
	markerUnits="strokeWidth"
	markerWidth="16" 
	markerHeight="16"
	orient="auto"
	refX="0" refY="0"
	viewBox="-12 -6 12 12">
	<rect stroke="none" x="-5" y="-0.6" width="5" height="1.2" />
	<line fill="none" stroke-width="1.6" x1="-5" y1="-6" x2="-5" y2="6"/>
	</marker>
	

	<!-- mim-inhibition markers: vertical line; and extended drawing-board rect -->

	<marker id="mim-inhibition-start-black"
	class="drawing-board-color-fill"
	stroke="black"
	markerWidth="16" 
	markerHeight="16"
	markerUnits="strokeWidth"
	orient="auto"
	refX="0" refY="0"
	viewBox="0 -6 12 12">
	<rect stroke="none" x="0" y="-0.6" width="5" height="1.2" />
	<line fill="none" stroke-width="1.6" x1="5" y1="-6" x2="5" y2="6"/>
	</marker>

	<marker id="mim-inhibition-end-black"
	class="drawing-board-color-fill"
	stroke="black"
	markerUnits="strokeWidth"
	markerWidth="16" 
	markerHeight="16"
	orient="auto"
	refX="0" refY="0"
	viewBox="-12 -6 12 12">
	<rect stroke="none" x="-5" y="-0.6" width="5" height="1.2" />
	<line fill="none" stroke-width="1.6" x1="-5" y1="-6" x2="-5" y2="6"/>
	</marker>
	
	<!-- mim-binding markers: four-point polygon, no stroke -->

	<marker id="mim-binding-start-black" 
	fill="black"
	markerUnits="strokeWidth"
	markerWidth="12" markerHeight="12"
	orient="auto"
	refX="0" refY="0"
	viewBox="0 -6 12 12">
	<rect class="drawing-board-color-fill" stroke="none" x="0" y="-0.6" width="2" height="1.2" />
	<polygon stroke-width="0" points="12,6 0,0 12,-6 5,0 "/>
	</marker>

	<marker id="mim-binding-end-black"
	fill="black"
	markerUnits="strokeWidth"
	markerWidth="12" markerHeight="12"
	orient="auto"
	refX="0" refY="0"
	viewBox="-12 -6 12 12">
	<rect class="drawing-board-color-fill" stroke="none" x="-2" y="-0.6" width="2" height="1.2" />
	<polygon stroke-width="0" points="-12,6 0,0 -12,-6 -5,0 "/>
	</marker>

	<!-- mim-modification markers: four-point polygon, no stroke -->

	<marker id="mim-modification-start-black" 
	fill="black"
	markerUnits="strokeWidth"
	markerWidth="12" markerHeight="12"
	orient="auto"
	refX="0" refY="0"
	viewBox="0 -6 12 12">
	<rect class="drawing-board-color-fill" stroke="none" x="0" y="-0.6" width="2" height="1.2" />
	<polygon stroke-width="0" points="12,6 0,0 12,-6 5,0 "/>
	</marker>

	<marker id="mim-modification-end-black"
	fill="black"
	markerUnits="strokeWidth"
	markerWidth="12" markerHeight="12"
	orient="auto"
	refX="0" refY="0"
	viewBox="-12 -6 12 12">
	<rect class="drawing-board-color-fill" stroke="none" x="-2" y="-0.6" width="2" height="1.2" />
	<polygon stroke-width="0" points="-12,6 0,0 -12,-6 -5,0 "/>
	</marker>

	<!-- mim-catalysis markers: circle, drawing-board fill and black stroke -->

	<marker id="mim-catalysis-start-black"
	class="drawing-board-color-fill"
	stroke="black"
	markerHeight="12"
	markerWidth="12"
	markerUnits="strokeWidth"
	orient="auto"
	refX="0" refY="0"
	viewBox="0 -6 12 12">
	<circle cx="5.3" cy="0" r="5.3px" stroke-width="1px"/>
	</marker>

	<marker id="mim-catalysis-end-black"
	class="drawing-board-color-fill"
	stroke="black"
	markerHeight="12"
	markerUnits="strokeWidth"
	markerWidth="12"
	orient="auto"
	refX="5" refY="0"
	viewBox="-6.5 -6 12 12">
	<circle cx="-0.3" cy="0" r="5.3px" stroke-width="1px"/>
	</marker>

	<!-- mim-cleavage markers: two lines and extended drawing-board rect -->

	<marker id="mim-cleavage-start-black" 
	class="drawing-board-color-fill" 
	stroke="black"
	markerHeight="24"
	markerWidth="24"
	markerUnits="strokeWidth"
	orient="auto"
	refX="0" refY="0"
	viewBox="-8 -6 12 12">
	<rect stroke="none" x="0" y="-0.6" width="3.5" height="1.2" />
	<line fill="none" stroke-width=".4" x1="3.7" y1="0" x2="3.7" y2="6"/>	
	<line fill="none" stroke-width=".4" x1="3.7" y1="6" x2="-8" y2="-6"/>	
	</marker>

	<marker id="mim-cleavage-end-black"
	class="drawing-board-color-fill" 
	stroke="black"
	markerHeight="24"
	markerWidth="24"
	markerUnits="strokeWidth"
	orient="auto"
	refX="0" refY="0"
	viewBox="-4 -6 12 12">
	<rect stroke="none" x="-3.5" y="-0.6" width="3.5" height="1.2" />
	<line fill="none" stroke-width=".4" x1="-3.7" y1="0" x2="-3.7" y2="-6"/>	
	<line fill="none" stroke-width=".4" x1="-3.7" y1="-6" x2="8" y2="6"/>	
	</marker>

	<!-- mim-branching-left markers: line and extended drawing-board rect -->

	<marker id="mim-branching-left-start-black" 
	class="drawing-board-color-fill" 
	stroke="black"
	markerHeight="24"
	markerWidth="24"
	markerUnits="strokeWidth"
	orient="auto"
	refX="0" refY="0"
	viewBox="0 -6 12 12">
	<rect stroke="none" x="0" y="-0.6" width="3.5" height="1.2" />
	<line fill="none" stroke-width=".4" x1="3.7" y1="0" x2="0" y2="-6"/>	
	</marker>

	<marker id="mim-branching-left-end-black"
	class="drawing-board-color-fill" 
	stroke="black"
	markerHeight="24"
	markerWidth="24"
	markerUnits="strokeWidth"
	orient="auto"
	refX="0" refY="0"
	viewBox="-12 -6 12 12">
	<rect stroke="none" x="-3.5" y="-0.6" width="3.5" height="1.2" />
	<line fill="none" stroke-width=".4" x1="-3.7" y1="0" x2="0" y2="6"/>	
	</marker>

	<!-- mim-branching-right markers: line and extended drawing-board rect -->

	<marker id="mim-branching-right-start-black" 
	class="drawing-board-color-fill" 
	stroke="black"
	markerHeight="24"
	markerWidth="24"
	markerUnits="strokeWidth"
	orient="auto"
	refX="0" refY="0"
	viewBox="0 -6 12 12">
	<rect stroke="none" x="0" y="-0.6" width="3.5" height="1.2" />
	<line fill="none" stroke-width=".4" x1="3.7" y1="0" x2="0" y2="6"/>
	</marker>

	<marker id="mim-branching-right-end-black"
	class="drawing-board-color-fill" 
	stroke="black"
	markerHeight="24"
	markerWidth="24"
	markerUnits="strokeWidth"
	orient="auto"
	refX="0" refY="0"
	viewBox="-12 -6 12 12">
	<rect stroke="none" x="-3.5" y="-0.6" width="3.5" height="1.2" />
	<line fill="none" stroke-width=".4" x1="-3.7" y1="0" x2="0" y2="-6"/>	
	</marker>

	<!-- mim-transcription-translation markers: two lines and an open trigular polygon, plus extended drawing-board rect -->

	<marker id="mim-transcription-translation-start-black"
	class="drawing-board-color-fill" 
	stroke="black"
	markerHeight="24"
	markerWidth="24"
	markerUnits="strokeWidth"
	orient="auto"
	refX="0" refY="0"
	viewBox="0 -6 12 12">
	<rect stroke="none" x="0" y="-0.6" width="6" height="1.2" />
	<line fill="none" stroke-width=".4" x1="9" y1="0" x2="9" y2="-4"/>
	<line fill="none" stroke-width=".4" x1="9" y1="-4" x2="5" y2="-4"/>
	<polygon stroke-width=".4" points="5,-6 0,-4 5,-2"/>
	</marker>

	<marker id="mim-transcription-translation-end-black"
	class="drawing-board-color-fill" 
	stroke="black"
	markerHeight="24"
	markerWidth="24"
	markerUnits="strokeWidth"
	orient="auto"
	refX="0" refY="0"
	viewBox="-12 -6 12 12">
	<rect stroke="none" x="-6" y="-0.6" width="6" height="1.2" />
	<line fill="none" stroke-width=".4" x1="-9" y1="0" x2="-9" y2="4"/>
	<line fill="none" stroke-width=".4" x1="-9" y1="4" x2="-5" y2="4"/>
	<polygon stroke-width=".4" points="-5,6 0,4 -5,2"/>	
	</marker>
	
	<!-- mim-covalent-bond markers: not much to see here! -->

	<marker id="mim-covalent-bond-start-black"
	markerUnits="strokeWidth"
	markerWidth="10" markerHeight="10"
	orient="auto"
	refX="0" refY="0"
	viewBox="0 -6 12 12">
	</marker>

	<marker id="mim-covalent-bond-end-black"
	markerUnits="strokeWidth"
	markerWidth="10" markerHeight="10"
	orient="auto"
	refX="0" refY="0"
	viewBox="-12 -6 12 12">
	</marker>


	<!-- double-line-hack markers are used in double line handling; they include their own 
	special blank rect to obscure the ends -->

	<marker id="double-line-hack-start"
	markerUnits="strokeWidth"
	markerWidth="10" markerHeight="10"
	orient="auto"
	refX="0" refY="0"
	viewBox="0 -6 12 12">
	<rect class="drawing-board-color-fill" stroke="none" x="0" y="-1.5" width="2.3" height="3" />
	</marker>

	<marker id="double-line-hack-end"
	markerUnits="strokeWidth"
	markerWidth="10" markerHeight="10"
	orient="auto"
	refX="0" refY="0"
	viewBox="-12 -6 12 12">
	<rect class="drawing-board-color-fill" stroke="none" x="-2.3" y="-1.5" width="2.3" height="3" />
	</marker>


	<!-- mim-gap markers: just an extended drawing-board rect -->
	<!-- 
	TODO This could be refactored to make the shape match the viewbox.
	It can overlap the side of the shape, blanking out a small part of it when the edge is at an angle.
	-->

	<marker id="mim-gap-start-black"
	class="drawing-board-color-fill"
	markerUnits="strokeWidth"
	markerWidth="10" markerHeight="10"
	orient="auto"
	refX="0" refY="0"
	viewBox="0 -6 12 12">
	<rect stroke="none" x="-2" y="-0.7" width="8" height="1.4" />
	</marker>

	<marker id="mim-gap-end-black"
	class="drawing-board-color-fill"
	markerUnits="strokeWidth"
	markerWidth="10" markerHeight="10"
	orient="auto"
	refX="0" refY="0"
	viewBox="-12 -6 12 12">
	<rect stroke="none" x="-6" y="-0.7" width="8" height="1.4" />
	</marker>

	<!-- ***************************
	Symbols (shapes) 
	*************************** -->

	<!-- because of the viewbox, these symbols can be stretched to any size,
	but the stroke width will appear to increase as the symbol increases
	in height or width, ie., some SVG renderers display the E and W sides of 
	a rect transformed with "scale(2, 1)" as thicker than the N and S sides.
	I need to figure out how to correct this. Using the vector-effect attribute set to
	"non-scaling-stroke" works in Chrome, but not all renderers support this attribute.
	TODO Is there a better way to address this?

	Some symbols such as "nucleus" appear to be cropped at the top and left sides in Chrome.
	TODO redraw symbols so they are entirely within viewbox.
	-->

	<symbol id="none" class="shape-none" viewBox="0 0 100 50" preserveAspectRatio="none">
	<desc>none</desc>
	</symbol>

	<!-- Shape is placeholder until it can be replaced with correct shape. -->
	<!-- TO-DO: change into half circle -->
<!--
	<symbol id="arc" viewBox="0 0 100 50" preserveAspectRatio="none" stroke="black" class="drawing-board-color-fill">
	<desc>arc</desc>
31.99724,-71.5 71.5,-71.5c39.50276,0 71.50001,31.99724 71.50001,71.5c0,39.50276 -31.99725,71.5 -71.50001,71.5c-39.50276,0 -71.5,-31.99724 -71.5,-71.5z"/>
	</symbol> 
-->
	<!-- TO-DO: Brace style is not ideal -->

	<symbol id="brace" viewBox="0 0 100 50" preserveAspectRatio="none">
	<desc>brace</desc>
	<path d="m1490,1055c0,-1 -5,-3 -24,-3l-32,-4l-36,-13l-8,-7" vector-effect="non-scaling-stroke"/>
  	<polyline points="1430,1051 1430,1050 " vector-effect="non-scaling-stroke"/>
  	<path transform="rotate(90, 50.5312, 20.3125)" d="m58.36591,68.31439c-4.32813,0 -7.83624,-0.58405 -7.83624,-1.30634l0,-45.38824c0,-0.72241 -3.50806,-1.30646 -7.8363,-1.30646l0,0c4.32825,0 7.8363,-0.58386 7.8363,-1.30524l0,-45.38904l0,0c0,-0.72162 3.50812,-1.30536 7.83624,-1.30536" vector-effect="non-scaling-stroke"/>
	</symbol>
	
	<!-- group of style "none" -->
	<symbol id="group-none" viewBox="0 0 120 180" preserveAspectRatio="none">
	<desc>Group with style 'none'</desc>
	<rect x="0" y="0" width="118" height="178" fill="rgb(180,180,100)" vector-effect="non-scaling-stroke"></rect>
	</symbol>

	<!-- group of style "group" -->
	<!-- Not sure about this. Should this deinition be empty since group of type group doesn't have an outline other than for mouse-over? -->
	<symbol id="group-group" viewBox="0 0 120 180" preserveAspectRatio="none">
	<desc>Group with style 'group'</desc>
	</symbol>

	<!-- group of style "complex" -->
	<!-- TO-DO: The current symbol doesn't scale properly -->
	<symbol id="group-complex" viewBox="0 0 100 100" preserveAspectRatio="xMinYMin meet">
	<desc>Group with style 'complex'</desc>
	<path d="m26.75,3l47.50001,0l23.75,23.75l0,47.50001l-23.75,23.75l-47.50001,0l-23.75,-23.75l0,-47.50001l23.75,-23.75z" fill="rgb(180,180,100)" vector-effect="non-scaling-stroke"/>
	</symbol>

	<!-- group of style "pathway" -->
	<symbol id="group-pathway" viewBox="0 0 120 180" preserveAspectRatio="none">
	<desc>Group with style 'pathway'</desc>
	<rect x="1" y="1" width="118" height="178" vector-effect="non-scaling-stroke" fill="lightgreen" stroke-weight="1"></rect>
	</symbol>

	<!-- Endoplasmic reticulum -->

	<symbol id="endoplasmic-reticulum" viewBox="0 0 100 100" preserveAspectRatio="none">
	<desc>endoplasmic-reticulum</desc>
	<path d="m73.52756,56.60967c-5.62457,-18.60675 23.51463,-32.43358 23.40173,-45.06604c-0.34426,-4.86102 -10.48934,-8.89743 -18.28974,-5.33395c-17.04119,7.87556 -15.64949,29.30503 -21.20533,42.23387c-0.35661,3.60951 -7.36274,2.46926 -7.74964,-0.48694c-5.8512,-11.38871 17.13534,-24.48692 5.96075,-29.42586c-19.63467,-8.16979 -28.75184,21.15346 -22.0682,28.81784c7.4956,14.17602 -2.17949,24.40679 -6.74689,15.49637c-2.44209,-5.30613 6.06605,-11.08445 -0.80351,-16.17689c-4.31991,-2.79993 -11.75555,-0.64618 -16.15468,3.0943c-12.89117,10.73799 4.72957,40.98145 20.96467,36.14635c4.69833,-1.95989 -3.23603,-8.70151 3.90717,-9.59951c7.29767,-0.81255 5.17628,6.18889 7.68745,9.22691c2.3071,4.0509 4.83232,8.35538 10.7626,11.6237c4.78642,2.53724 15.29437,2.11225 16.77148,-1.95795c2.0318,-9.26291 -26.11129,-28.35848 -10.68903,-31.2815c18.55524,-2.71473 4.74866,23.84573 24.31006,29.69419c9.50188,2.02824 15.63902,-0.62194 14.81255,-4.03272c-2.74586,-11.26327 -25.13557,-22.6802 -24.96441,-33.14968" vector-effect="non-scaling-stroke"/>
	</symbol>

	<!-- Extracellular region -->

	<symbol id="extracellular-region" viewBox="0 0 100 50" preserveAspectRatio="none" >
	<desc>extracellular-region</desc>
	<rect x="1" y="1" rx="10" ry="10" width="98" height="48" vector-effect="non-scaling-stroke"></rect>
	</symbol>

	<!-- Golgi apparatus -->

	<symbol id="golgi-apparatus" viewBox="0 0 90 150" preserveAspectRatio="none">
	<desc>golgi-apparatus</desc>
	<path d="m58.46714,27.713327c-22.205345,-29.90079 37.310066,-30.258356 25.567245,-4.823446c-8.807655,18.581238 -17.066429,58.135235 -0.941673,99.22044c13.31469,27.066696 -41.748463,27.760925 -27.755554,-1.469849c11.345825,-29.420242 10.286858,-80.336422 3.129982,-92.927145z" vector-effect="non-scaling-stroke"/>
   	<path d="m31.214371,36.214363c-10.791712,-21.427903 29.897598,-19.848164 18.407501,0.670895c-4.066933,7.422386 -5.782803,61.572803 1.160713,75.028805c8.52943,18.597427 -32.852985,19.355408 -20.500162,-2.250633c6.952761,-17.358604 10.473742,-52.291187 0.931948,-73.449066z" vector-effect="non-scaling-stroke"/>
   	<path d="m29.803959,52.160912c1.584177,11.474716 2.723461,16.737267 -1.482977,38.361366c-3.731956,12.989006 -3.600399,16.340691 -11.732334,19.412781c-6.683298,1.658531 -11.864832,-9.789436 -4.793299,-16.11377c4.855728,-5.623222 6.141087,-10.882362 6.658888,-22.954659c-0.239212,-9.521427 0.814508,-15.823826 -5.36692,-19.958626c-7.624315,-2.195171 -6.088041,-16.534611 4.824059,-13.863804c5.849354,1.027065 10.282408,8.561516 11.892582,15.116711z" vector-effect="non-scaling-stroke"/>
	</symbol>

	<!-- this is the dragbox shape for any set of elements that have been grouped. this only shows up in edit mode. -->

	<symbol id="group-drag-box" viewBox="0 0 120 180" preserveAspectRatio="none">
	<desc>Group</desc>
	<rect x="0" y="0" width="120" height="180" vector-effect="non-scaling-stroke"></rect>
	</symbol>

	<!-- Shape is placeholder until it can be replaced with correct shape. -->

	<symbol id="hexagon" viewBox="0 0 100 100" preserveAspectRatio="none">
	<desc>hexagon</desc>
	<path d="m1.42004,50.99635l21.07262,-42.13943l56.19152,0l21.0667,42.13943l-21.0667,42.14507l-56.19152,0l-21.07262,-42.14507z" vector-effect="non-scaling-stroke"/>
	</symbol>

	<!-- Shape is placeholder until it can be replaced with correct shape. -->

	<symbol id="mim-degradation" viewBox="0 0 90 90" preserveAspectRatio="none">
	<desc>mim-degradation</desc>
	<circle r="36.94531" cy="40.5" cx="47" stroke-weight="2" vector-effect="non-scaling-stroke"/>
  	<line transform="rotate(10, 47.5, 41.9492)" y2="73.89744" x2="92" y1="10" x1="3" vector-effect="non-scaling-stroke"/>
  	</symbol>

	<!-- mitochondria -->

	<symbol id="mitochondria" viewBox="0 0 100 65.5" preserveAspectRatio="none">
	<desc>Mitochondria</desc>
	<path
	vector-effect="non-scaling-stroke"
	d="M95.753,46.125  c0,7.808-5.905,14.14-13.189,14.14H17.442c-7.284,0-13.189-6.332-13.189-14.14v-26.22c0-7.81,5.905-14.141,13.189-14.141h65.122  c7.284,0,13.189,6.331,13.189,14.141V46.125z"/>
	<path
	d="M12.868,16.743    c4.516-0.482,3.961,11.073,8.468,10.519c8.562,0.02,3.086-18.296,10.245-18.418c7.211-0.122,2.325,19.465,9.526,19.135    c7.899-0.364,0.525-21.407,8.42-21.854c7.967-0.448,3.021,20.825,10.999,20.945c6.775,0.104,3.132-17.967,9.894-17.498    c7.443,0.516,0.688,19.397,8.053,20.583c4.914,0.79,4.575-11.867,9.525-11.336c11.517,4.925,8.929,24.503-2.256,29.018    c-3.248,0.454-4.104-6.826-7.361-6.438c-5.785,0.688-4.121,14.484-9.938,14.169c-5.422-0.297-2.304-14.063-7.731-14.124    c-7.204-0.076-3.475,18.8-10.676,18.521c-6.355-0.244-1.791-16.217-8.098-17.024c-5.88-0.752-5.566,14.41-11.412,13.442    c-6.467-1.069-0.486-17.337-6.995-18.112c-3.859-0.459-2.74,9.36-6.627,9.454C2.399,43.865,0.606,21.916,12.868,16.743z" vector-effect="non-scaling-stroke"/>
	</symbol>

	<!-- oval -->

	<symbol id="oval" viewBox="0 0 100 50" preserveAspectRatio="none">
	<desc>Ellipse</desc>
	<ellipse cx="50" cy="25" rx="50" ry="25" vector-effect="non-scaling-stroke"></ellipse>
	</symbol>

	<!-- pentagon -->

	<symbol id="pentagon" viewBox="0 0 100 100" preserveAspectRatio="none">
	<desc>pentagon</desc>
	<path transform="rotate(90, 23.4965, 25.5215)" d="m-0.00193,20.24006l23.50095,-17.09823l23.49858,17.09823l-8.97612,27.66264l-29.04728,0l-8.97613,-27.66264z" vector-effect="non-scaling-stroke"/>
	</symbol>

	<!-- rectangle -->

	<symbol id="rectangle" viewBox="0 0 100 50" preserveAspectRatio="none">
	<desc>Rectangle</desc>
	<rect x="0" y="0" width="100" height="50" vector-effect="non-scaling-stroke"></rect>
	</symbol>

	<!-- rounded-rectangle -->

	<symbol id="rounded-rectangle" viewBox="0 0 100 50" preserveAspectRatio="none">
	<desc>Rounded Rectangle</desc>
	<rect x="0" y="0" rx="10" ry="10" width="100" height="50" vector-effect="non-scaling-stroke"></rect>
	</symbol>

	<!-- Sarcoplasmic reticulum -->

	<symbol id="sarcoplasmic-reticulum" viewBox="0 0 80 100" preserveAspectRatio="none">
	<desc>sarcoplasmic-reticulum</desc>
	<path d="m46.60182,1.40724c-32.37224,1.34138 -36.32004,22.77011 -26.50318,38.12777c9.31826,18.3425 -18.7656,30.15016 2.56955,49.37807c16.82126,13.11594 46.33175,6.10508 52.12638,-8.56826c5.89916,-15.24847 -10.95099,-26.0272 -3.29316,-40.96135c10.85342,-19.88432 -0.77615,-38.13043 -24.89959,-37.97624z" vector-effect="non-scaling-stroke"/>	
	</symbol>

	<!-- triangle -->

	<symbol id="triangle" viewBox="0 0 50 50" preserveAspectRatio="none">
	<desc>triangle</desc>
	<polygon points="1,49 49,24 1,1" vector-effect="non-scaling-stroke"/>
	</symbol>

	<!-- Shape is placeholder until it can be replaced with correct shape. -->

	<symbol id="vesicle" viewBox="0 0 64 64" preserveAspectRatio="none">
	<desc>vesicle</desc>
	<circle cx="32" cy="32" r="30" stroke-width="2"/>	
	</symbol> 

	<!-- TODO Update placeholders for SVG definitions of shapes.

	For current symbols in GIF and/or BMP format, see
	http://svn.bigcat.unimaas.nl/pathvisio/trunk/modules/org.pathvisio.core/resources/

	Should we add SBGN? Available as SVG here: http://www.sbgn.org/Documents/Templates 
	Not sure about adding lines. Should they be only defined in CSS?
	-->

	</defs>

	</svg>
