<?xml version="1.0" encoding="UTF-8" standalone="no"?>
<?xml-stylesheet type="text/css" href="../../css/pathway-diagram.css"?>

<svg id="sarcoplasmic-reticulum"
	version="1.1"
	baseProfile="full"
	xmlns="http://www.w3.org/2000/svg"
	xmlns:xlink="http://www.w3.org/1999/xlink"
	xmlns:ev="http://www.w3.org/2001/xml-events"
	width="100"
	height="100"
	viewBox="0 0 80 100"
	preserveAspectRatio="none"
	class="node shape cellular-component">

	<clipPath id="sarcoplasmic-reticulum-clip-path">
		<path d="m46.60182,1.40724c-32.37224,1.34138 -36.32004,22.77011 -26.50318,38.12777c9.31826,18.3425 -18.7656,30.15016 2.56955,49.37807c16.82126,13.11594 46.33175,6.10508 52.12638,-8.56826c5.89916,-15.24847 -10.95099,-26.0272 -3.29316,-40.96135c10.85342,-19.88432 -0.77615,-38.13043 -24.89959,-37.97624z" />	
	</clipPath>
	
	<path d="m46.60182,1.40724c-32.37224,1.34138 -36.32004,22.77011 -26.50318,38.12777c9.31826,18.3425 -18.7656,30.15016 2.56955,49.37807c16.82126,13.11594 46.33175,6.10508 52.12638,-8.56826c5.89916,-15.24847 -10.95099,-26.0272 -3.29316,-40.96135c10.85342,-19.88432 -0.77615,-38.13043 -24.89959,-37.97624z" style="clip-path: url(#sarcoplasmic-reticulum-clip-path); " />	

</svg>
