<?xml version="1.0" encoding="UTF-8" standalone="no"?>

	<svg id="rectangle"
	version="1.1"
	baseProfile="full"
	xmlns="http://www.w3.org/2000/svg"
	xmlns:xlink="http://www.w3.org/1999/xlink"
	xmlns:ev="http://www.w3.org/2001/xml-events"
	width="100%"
	height="100%">
	<g>
	<title>pathway defs for pathvisio.js</title>
	<desc>
	This SVG file contains all the graphical elements (markers and symbols in defs as well as
	style data) used by the program pathvisio.js, which has two components: 
	1) a viewer for transforming GPML biological pathway data into an SVG visual representation and 
	2) an editor for creating both views and models for biological pathways.
	</desc>
	</g>

	<!-- arc -->

	<symbol id="arc" viewBox="0 0 100 100" preserveAspectRatio="none">
	<desc>arc</desc>
	<path d="m1.5,50.5c0,-16.16667 8.16667,-24.25 24.5,-24.25s24.5,-8.08334 24.5,-24.25c0,16.16666 8.16666,24.25 24.49999,24.25s24.50001,8.08333 24.50001,24.25" vector-effect="non-scaling-stroke"/>	
	</symbol> 

	<!-- brace -->

	<clipPath id="brace-clip-path">
	<path d="m1.5,49.499996c0,-16.166668 8.166666,-24.249996 24.499998,-24.249996s24.499998,-8.083336 24.499998,-24.250002c0,16.166666 8.166664,24.250002 24.499996,24.250002s24.5,8.083328 24.5,24.249996" vector-effect="non-scaling-stroke"/>
        </clipPath>

	<symbol id="brace" viewBox="0 0 100 50" preserveAspectRatio="none">
	<desc>brace</desc>
	<path d="m1.5,49.499996c0,-16.166668 8.166666,-24.249996 24.499998,-24.249996s24.499998,-8.083336 24.499998,-24.250002c0,16.166666 8.166664,24.250002 24.499996,24.250002s24.5,8.083328 24.5,24.249996" style="clip-path: url(#brace-clip-path); " vector-effect="non-scaling-stroke"/>
  	</symbol>

	<!-- Endoplasmic reticulum -->
	<clipPath id="endoplasmic-reticulum-clip-path">
	<path d="m73.52756,56.60967c-5.62457,-18.60675 23.51463,-32.43358 23.40173,-45.06604c-0.34426,-4.86102 -10.48934,-8.89743 -18.28974,-5.33395c-17.04119,7.87556 -15.64949,29.30503 -21.20533,42.23387c-0.35661,3.60951 -7.36274,2.46926 -7.74964,-0.48694c-5.8512,-11.38871 17.13534,-24.48692 5.96075,-29.42586c-19.63467,-8.16979 -28.75184,21.15346 -22.0682,28.81784c7.4956,14.17602 -2.17949,24.40679 -6.74689,15.49637c-2.44209,-5.30613 6.06605,-11.08445 -0.80351,-16.17689c-4.31991,-2.79993 -11.75555,-0.64618 -16.15468,3.0943c-12.89117,10.73799 4.72957,40.98145 20.96467,36.14635c4.69833,-1.95989 -3.23603,-8.70151 3.90717,-9.59951c7.29767,-0.81255 5.17628,6.18889 7.68745,9.22691c2.3071,4.0509 4.83232,8.35538 10.7626,11.6237c4.78642,2.53724 15.29437,2.11225 16.77148,-1.95795c2.0318,-9.26291 -26.11129,-28.35848 -10.68903,-31.2815c18.55524,-2.71473 4.74866,23.84573 24.31006,29.69419c9.50188,2.02824 15.63902,-0.62194 14.81255,-4.03272c-2.74586,-11.26327 -25.13557,-22.6802 -24.96441,-33.14968" vector-effect="non-scaling-stroke"/>
	</clipPath>
	
	<symbol id="endoplasmic-reticulum" viewBox="0 0 100 100" preserveAspectRatio="none">
	<desc>endoplasmic-reticulum</desc>
	<path d="m73.52756,56.60967c-5.62457,-18.60675 23.51463,-32.43358 23.40173,-45.06604c-0.34426,-4.86102 -10.48934,-8.89743 -18.28974,-5.33395c-17.04119,7.87556 -15.64949,29.30503 -21.20533,42.23387c-0.35661,3.60951 -7.36274,2.46926 -7.74964,-0.48694c-5.8512,-11.38871 17.13534,-24.48692 5.96075,-29.42586c-19.63467,-8.16979 -28.75184,21.15346 -22.0682,28.81784c7.4956,14.17602 -2.17949,24.40679 -6.74689,15.49637c-2.44209,-5.30613 6.06605,-11.08445 -0.80351,-16.17689c-4.31991,-2.79993 -11.75555,-0.64618 -16.15468,3.0943c-12.89117,10.73799 4.72957,40.98145 20.96467,36.14635c4.69833,-1.95989 -3.23603,-8.70151 3.90717,-9.59951c7.29767,-0.81255 5.17628,6.18889 7.68745,9.22691c2.3071,4.0509 4.83232,8.35538 10.7626,11.6237c4.78642,2.53724 15.29437,2.11225 16.77148,-1.95795c2.0318,-9.26291 -26.11129,-28.35848 -10.68903,-31.2815c18.55524,-2.71473 4.74866,23.84573 24.31006,29.69419c9.50188,2.02824 15.63902,-0.62194 14.81255,-4.03272c-2.74586,-11.26327 -25.13557,-22.6802 -24.96441,-33.14968" style="clip-path: url(#endoplasmic-reticulum-clip-path); " vector-effect="non-scaling-stroke"/>
	</symbol>

	<!-- Golgi apparatus -->
	<clipPath id="golgi-apparatus-clip-path1">
	<path d="m58.46714,27.713327c-22.205345,-29.90079 37.310066,-30.258356 25.567245,-4.823446c-8.807655,18.581238 -17.066429,58.135235 -0.941673,99.22044c13.31469,27.066696 -41.748463,27.760925 -27.755554,-1.469849c11.345825,-29.420242 10.286858,-80.336422 3.129982,-92.927145z" vector-effect="non-scaling-stroke"/>
   	</clipPath> 
	
	<clipPath id="golgi-apparatus-clip-path2">
   	<path d="m31.214371,36.214363c-10.791712,-21.427903 29.897598,-19.848164 18.407501,0.670895c-4.066933,7.422386 -5.782803,61.572803 1.160713,75.028805c8.52943,18.597427 -32.852985,19.355408 -20.500162,-2.250633c6.952761,-17.358604 10.473742,-52.291187 0.931948,-73.449066z" vector-effect="non-scaling-stroke"/>
	</clipPath> 
	
	<clipPath id="golgi-apparatus-clip-path3">
   	<path d="m29.803959,52.160912c1.584177,11.474716 2.723461,16.737267 -1.482977,38.361366c-3.731956,12.989006 -3.600399,16.340691 -11.732334,19.412781c-6.683298,1.658531 -11.864832,-9.789436 -4.793299,-16.11377c4.855728,-5.623222 6.141087,-10.882362 6.658888,-22.954659c-0.239212,-9.521427 0.814508,-15.823826 -5.36692,-19.958626c-7.624315,-2.195171 -6.088041,-16.534611 4.824059,-13.863804c5.849354,1.027065 10.282408,8.561516 11.892582,15.116711z" vector-effect="non-scaling-stroke"/>
	</clipPath> 
	
	<symbol id="golgi-apparatus" viewBox="0 0 90 150" preserveAspectRatio="none">
	<desc>golgi-apparatus</desc>
	<path d="m58.46714,27.713327c-22.205345,-29.90079 37.310066,-30.258356 25.567245,-4.823446c-8.807655,18.581238 -17.066429,58.135235 -0.941673,99.22044c13.31469,27.066696 -41.748463,27.760925 -27.755554,-1.469849c11.345825,-29.420242 10.286858,-80.336422 3.129982,-92.927145z" style="clip-path: url(#golgi-apparatus-clip-path1); " vector-effect="non-scaling-stroke"/>
   	<path d="m31.214371,36.214363c-10.791712,-21.427903 29.897598,-19.848164 18.407501,0.670895c-4.066933,7.422386 -5.782803,61.572803 1.160713,75.028805c8.52943,18.597427 -32.852985,19.355408 -20.500162,-2.250633c6.952761,-17.358604 10.473742,-52.291187 0.931948,-73.449066z" style="clip-path: url(#golgi-apparatus-clip-path2); " vector-effect="non-scaling-stroke"/>
   	<path d="m29.803959,52.160912c1.584177,11.474716 2.723461,16.737267 -1.482977,38.361366c-3.731956,12.989006 -3.600399,16.340691 -11.732334,19.412781c-6.683298,1.658531 -11.864832,-9.789436 -4.793299,-16.11377c4.855728,-5.623222 6.141087,-10.882362 6.658888,-22.954659c-0.239212,-9.521427 0.814508,-15.823826 -5.36692,-19.958626c-7.624315,-2.195171 -6.088041,-16.534611 4.824059,-13.863804c5.849354,1.027065 10.282408,8.561516 11.892582,15.116711z" style="clip-path: url(#golgi-apparatus-clip-path3); " vector-effect="non-scaling-stroke"/>
	</symbol>

	<!-- this is the dragbox shape for any set of elements that have been grouped. this only shows up in edit mode. -->

	<symbol id="group-drag-box" viewBox="0 0 120 180" preserveAspectRatio="none">
	<desc>Group</desc>
	<rect x="0" y="0" width="120" height="180" vector-effect="non-scaling-stroke"></rect>
	</symbol>

	<!-- Shape is placeholder until it can be replaced with correct shape. -->
	<clipPath id="hexagon-clip-path">
	<path d="m1.42004,50.99635l21.07262,-42.13943l56.19152,0l21.0667,42.13943l-21.0667,42.14507l-56.19152,0l-21.07262,-42.14507z" vector-effect="non-scaling-stroke"/>
        </clipPath>
      
	<symbol id="hexagon" viewBox="0 0 100 100" preserveAspectRatio="none">
	<desc>hexagon</desc>
	<path d="m1.42004,50.99635l21.07262,-42.13943l56.19152,0l21.0667,42.13943l-21.0667,42.14507l-56.19152,0l-21.07262,-42.14507z" style="clip-path: url(#hexagon-clip-path); " vector-effect="non-scaling-stroke"/>
	</symbol>

	<!-- Shape is placeholder until it can be replaced with correct shape. -->
	<!-- The line part of this shape has a stroke width set to 1, to make it the same as the circle after clip path is applied -->
	<clipPath id="mim-degradation-circle-clip-path" >
	<circle cx="50" cy="50" r="49" vector-effect="non-scaling-stroke"/>
  	</clipPath>
  	
	<symbol id="mim-degradation" viewBox="0 0 100 100" preserveAspectRatio="none">
	<desc>mim-degradation</desc>
	<circle cx="50" cy="50" r="49" style="clip-path: url(#mim-degradation-circle-clip-path); " vector-effect="non-scaling-stroke"/>
  	<line  x1="1" y1="1" x2="100" y2="100" stroke-width="1" vector-effect="non-scaling-stroke"/>
  	</symbol>
	
	<!-- mitochondria -->
	<clipPath id="mitochondria-clip-path">
	<path
	d="m14.894899,26.347357c4.363817,-0.741571 3.827518,17.036169 8.182638,16.183825c8.27347,0.030762 2.982006,-28.148991 9.899754,-28.336687c6.967995,-0.187704 2.246651,29.947527 9.204983,29.43981c7.632813,-0.560024 0.507309,-32.935357 8.136253,-33.623082c7.698521,-0.689259 2.919197,32.039941 10.628349,32.224557c6.546684,0.160011 3.026451,-27.642808 9.56057,-26.921232c7.192177,0.79388 0.664818,29.842905 7.781624,31.667604c4.748405,1.215439 4.420822,-18.257757 9.204018,-17.440804c11.128883,7.577278 8.628105,37.698658 -2.179977,44.645138c-3.138542,0.698479 -3.965698,-10.502029 -7.112938,-9.905075c-5.59005,1.058502 -3.982124,22.284088 -9.603096,21.799461c-5.239281,-0.456947 -2.226364,-21.636383 -7.47047,-21.730232c-6.961235,-0.116928 -3.357895,28.924408 -10.316231,28.495148c-6.140846,-0.375397 -1.73064,-24.950363 -7.825104,-26.191963c-5.681847,-1.156982 -5.378429,22.170242 -11.027426,20.680939c-6.249069,-1.644684 -0.469624,-26.673519 -6.759275,-27.865887c-3.728954,-0.706188 -2.647665,14.400654 -6.403677,14.545292c-14.016198,-5.938736 -15.748776,-39.707981 -3.899994,-47.666811z" vector-effect="non-scaling-stroke"/>
	</clipPath> 
	
	<symbol id="mitochondria" viewBox="0 0 100 100" preserveAspectRatio="none">
	<desc>Mitochondria</desc>
	<use x="0" y="0" width="100" height="100" xlink:href="#oval"></use>
	<path
	d="m14.894899,26.347357c4.363817,-0.741571 3.827518,17.036169 8.182638,16.183825c8.27347,0.030762 2.982006,-28.148991 9.899754,-28.336687c6.967995,-0.187704 2.246651,29.947527 9.204983,29.43981c7.632813,-0.560024 0.507309,-32.935357 8.136253,-33.623082c7.698521,-0.689259 2.919197,32.039941 10.628349,32.224557c6.546684,0.160011 3.026451,-27.642808 9.56057,-26.921232c7.192177,0.79388 0.664818,29.842905 7.781624,31.667604c4.748405,1.215439 4.420822,-18.257757 9.204018,-17.440804c11.128883,7.577278 8.628105,37.698658 -2.179977,44.645138c-3.138542,0.698479 -3.965698,-10.502029 -7.112938,-9.905075c-5.59005,1.058502 -3.982124,22.284088 -9.603096,21.799461c-5.239281,-0.456947 -2.226364,-21.636383 -7.47047,-21.730232c-6.961235,-0.116928 -3.357895,28.924408 -10.316231,28.495148c-6.140846,-0.375397 -1.73064,-24.950363 -7.825104,-26.191963c-5.681847,-1.156982 -5.378429,22.170242 -11.027426,20.680939c-6.249069,-1.644684 -0.469624,-26.673519 -6.759275,-27.865887c-3.728954,-0.706188 -2.647665,14.400654 -6.403677,14.545292c-14.016198,-5.938736 -15.748776,-39.707981 -3.899994,-47.666811z" style="clip-path: url(#mitochondria-clip-path); " vector-effect="non-scaling-stroke"/>
	</symbol>

	<!-- oval -->
        <clipPath id="oval-clip-path">
      	<ellipse cx="50" cy="25" rx="50" ry="25" vector-effect="non-scaling-stroke"></ellipse>
        </clipPath>

	<symbol id="oval" viewBox="0 0 100 50" preserveAspectRatio="none">
	<desc>Ellipse</desc>
	<ellipse cx="50" cy="25" rx="50" ry="25" style="clip-path: url(#oval-clip-path); " vector-effect="non-scaling-stroke"></ellipse>
	</symbol>

	<!-- pentagon -->
        <clipPath id="pentagon-clip-path">
	<polygon points="59.159732818603516,99.61322021484375 95,50.28331756591797 59.159732818603516,0.9534196853637695 1.168962001800537,19.795764923095703 1.168962001800537,80.7708740234375 " vector-effect="non-scaling-stroke"/>
	</clipPath>
	
	<symbol id="pentagon" viewBox="0 0 100 100" preserveAspectRatio="none">
	<desc>pentagon</desc>
	<polygon points="59.159732818603516,99.61322021484375 95,50.28331756591797 59.159732818603516,0.9534196853637695 1.168962001800537,19.795764923095703 1.168962001800537,80.7708740234375 " style="clip-path: url(#pentagon-clip-path); " vector-effect="non-scaling-stroke"/>
	</symbol>

	<!-- rectangle -->
      	<clipPath id="rectangle-clip-path">
	<rect x="0" y="0" width="100" height="50" vector-effect="non-scaling-stroke"></rect>
      	</clipPath>
      
	<symbol id="rectangle" viewBox="0 0 100 50" preserveAspectRatio="none">
	<desc>Rectangle</desc>
	<rect x="0" y="0" width="100" height="50" style="clip-path: url(#rectangle-clip-path); " vector-effect="non-scaling-stroke"></rect>
	</symbol>

	<!-- rounded-rectangle -->
	<!-- TODO the rounded corners need to be constant in size, meaning they will probably have to be defined in JavaScript. -->
      	<clipPath id="rounded-rectangle-clip-path">
	<rect x="0" y="0" rx="2.5" ry="2.5"  width="100" height="50" vector-effect="non-scaling-stroke"></rect>
      	</clipPath>
      
	<symbol id="rounded-rectangle" viewBox="0 0 100 50" preserveAspectRatio="none">
	<desc>Rounded Rectangle</desc>
	<rect x="0" y="0" rx="2.5" ry="2.5" width="100" height="50" style="clip-path: url(#rounded-rectangle-clip-path); " vector-effect="non-scaling-stroke"></rect>
	</symbol>

	<!-- Sarcoplasmic reticulum -->
	<clipPath id="sarcoplasmic-reticulum-clip-path">
	<path d="m46.60182,1.40724c-32.37224,1.34138 -36.32004,22.77011 -26.50318,38.12777c9.31826,18.3425 -18.7656,30.15016 2.56955,49.37807c16.82126,13.11594 46.33175,6.10508 52.12638,-8.56826c5.89916,-15.24847 -10.95099,-26.0272 -3.29316,-40.96135c10.85342,-19.88432 -0.77615,-38.13043 -24.89959,-37.97624z" vector-effect="non-scaling-stroke"/>	
	</clipPath>
	
	<symbol id="sarcoplasmic-reticulum" viewBox="0 0 80 100" preserveAspectRatio="none">
	<desc>sarcoplasmic-reticulum</desc>
	<path d="m46.60182,1.40724c-32.37224,1.34138 -36.32004,22.77011 -26.50318,38.12777c9.31826,18.3425 -18.7656,30.15016 2.56955,49.37807c16.82126,13.11594 46.33175,6.10508 52.12638,-8.56826c5.89916,-15.24847 -10.95099,-26.0272 -3.29316,-40.96135c10.85342,-19.88432 -0.77615,-38.13043 -24.89959,-37.97624z" style="clip-path: url(#sarcoplasmic-reticulum-clip-path); " vector-effect="non-scaling-stroke"/>	
	</symbol>

	<!-- triangle -->

	<clipPath id="triangle-clip-path">
	<polygon points="1,49 49,24 1,1" vector-effect="non-scaling-stroke"/>
        </clipPath>

	<symbol id="triangle" viewBox="0 0 50 50" preserveAspectRatio="none">
	<desc>triangle</desc>
	<polygon points="1,49 49,24 1,1" style="clip-path: url(#triangle-clip-path);" vector-effect="non-scaling-stroke"/>
	</symbol>

	<!-- TODO Update placeholders for SVG definitions of shapes.

	For current symbols in GIF and/or BMP format, see
	http://svn.bigcat.unimaas.nl/pathvisio/trunk/modules/org.pathvisio.core/resources/

	Should we add SBGN? Available as SVG here: http://www.sbgn.org/Documents/Templates 
	Not sure about adding lines. Should they be only defined in CSS?
	-->

	</defs>
		<g id="viewport">
		</g>

	</svg>
